<?xml version="1.0" encoding="UTF-8" standalone="no"?>
<svg width="132px" height="41px" viewBox="0 0 132 41" version="1.1" xmlns="http://www.w3.org/2000/svg" xmlns:xlink="http://www.w3.org/1999/xlink">
    <!-- Generator: Sketch 47.1 (45422) - http://www.bohemiancoding.com/sketch -->
    <title>Group 2</title>
    <desc>Created with Sketch.</desc>
    <defs></defs>
    <g id="Symbols" stroke="none" stroke-width="1" fill="none" fill-rule="evenodd">
        <g id="GEC_Foot" transform="translate(-1449.000000, -240.000000)">
            <g id="Group-2" transform="translate(1449.000000, 240.000000)">
                <g id="goias-state-flag">
                    <polygon id="Fill-1" fill="#009965" points="0 36 58 36 58 30 0 30"></polygon>
                    <g id="Group-5" transform="translate(0.000000, 19.000000)">
                        <polygon id="Fill-2" fill="#009965" points="0.00334845361 5.90158651 57.924899 5.90158651 57.924899 0.210234422 0.00334845361 0.210234422"></polygon>
                        <polygon id="Fill-4" fill="#FDE23A" points="0.00334845361 21.9926134 57.924899 21.9926134 57.924899 16.3012613 0.00334845361 16.3012613"></polygon>
                    </g>
                    <polygon id="Fill-6" fill="#FDE23A" points="0 30 58 30 58 25 0 25"></polygon>
                    <polygon id="Fill-7" fill="#009965" points="0 15 58 15 58 10 0 10"></polygon>
                    <polygon id="Fill-8" fill="#FDE23A" points="0 10 58 10 58 5 0 5"></polygon>
                    <polygon id="Fill-9" fill="#FDE23A" points="0 20 58 20 58 15 0 15"></polygon>
                    <polygon id="Fill-10" fill="#009965" points="0 5 58 5 58 0 0 0"></polygon>
                    <polygon id="Fill-11" fill="#214B88" points="0 15 15 15 15 0 0 0"></polygon>
                    <polyline id="Fill-12" fill="#FFFFFE" points="3.49994503 1 4.09016556 2.9098643 6 2.9098643 4.45480729 4.0901357 5.04513774 6 3.49994503 4.81961301 1.95497219 6 2.54508278 4.0901357 1 2.9098643 2.90972451 2.9098643 3.49994503 1"></polyline>
                    <polyline id="Fill-13" fill="#FFFFFE" points="11.499945 1 12.0901656 2.9098643 14 2.9098643 12.4548073 4.0901357 13.0450278 6 11.499945 4.81961301 9.95486226 6 10.5450828 4.0901357 9 2.9098643 10.9097245 2.9098643 11.499945 1"></polyline>
                    <polyline id="Fill-14" fill="#FFFFFE" points="11.499945 8 12.0901656 9.90990845 14 9.90990845 12.4548073 11.0902071 13.0450278 13 11.499945 11.8197013 9.95486226 13 10.5450828 11.0902071 9 9.90990845 10.9097245 9.90990845 11.499945 8"></polyline>
                    <polyline id="Fill-15" fill="#FFFFFE" points="3.49994503 8 4.09016556 9.90990845 6 9.90990845 4.45491722 11.0902071 5.04513774 13 3.49994503 11.8197013 1.95486226 13 2.54519271 11.0902071 1 9.90990845 2.90972451 9.90990845 3.49994503 8"></polyline>
                    <polyline id="Fill-16" fill="#FFFFFE" points="8.0001299 6 8.47220057 7.14580843 10 7.14580843 8.76396467 7.85408912 9.23603533 9 8.0001299 8.29171931 6.76396467 9 7.23616524 7.85408912 6 7.14580843 7.52779943 7.14580843 8.0001299 6"></polyline>
                </g>
                <g id="planalto_presidencia_simbolosnacionais_bandeira" transform="translate(75.000000, 0.000000)">
                    <polygon id="Fill-1" fill="#009949" points="0 40 57 40 57 0 0 0"></polygon>
                    <polyline id="Fill-2" fill="#F9C623" points="28.5000959 5 5 20.0000959 28.5000959 35 52 20.0000959 28.5000959 5"></polyline>
                    <path d="M29,10 C34.5219682,10 39,14.4780318 39,20 C39,25.5219682 34.5219682,30 29,30 C23.4780318,30 19,25.5219682 19,20 C19,14.4780318 23.4780318,10 29,10" id="Fill-3" fill="#292D78"></path>
                    <polyline id="Fill-4" fill="#FFFFFE" points="31.5 16 31.6349525 16.3574309 32 16.3820084 31.7184076 16.6274002 31.8089847 17 31.5 16.7942588 31.190924 17 31.2815924 16.6274002 31 16.3820084 31.3649562 16.3574309 31.5 16"></polyline>
                    <polyline id="Fill-5" fill="#FFFFFE" points="30.5 19 30.6349327 19.3574479 31 19.381874 30.7184565 19.6273358 30.8089617 20 30.5 19.7941805 30.1910383 20 30.2816705 19.6273358 30 19.381874 30.3650673 19.3574479 30.5 19"></polyline>
                    <polyline id="Fill-6" fill="#FFFFFE" points="20.5 18 20.6350438 18.3574309 21 18.3820084 20.7184076 18.6274002 20.809076 19 20.5 18.7942588 20.1910153 19 20.2815924 18.6274002 20 18.3820084 20.3650475 18.3574309 20.5 18"></polyline>
                    <polyline id="Fill-7" fill="#FFFFFE" points="24.4999459 20 24.6349962 20.3573785 25 20.3819547 24.7184287 20.6273751 24.8091116 21 24.4999459 20.7942883 24.1908884 21 24.2815713 20.6273751 24 20.3819547 24.3650038 20.3573785 24.4999459 20"></polyline>
                    <polyline id="Fill-8" fill="#FFFFFE" points="22.5 22 22.6349287 22.3574233 23 22.3820485 22.7184318 22.627409 22.8090631 23 22.5 22.7942541 22.1909369 23 22.2815682 22.627409 22 22.3820485 22.3650713 22.3574233 22.5 22"></polyline>
                    <polyline id="Fill-9" fill="#FFFFFE" points="21.5 22 21.6349525 22.3574309 22 22.3820084 21.7184076 22.6274002 21.8089847 23 21.5 22.7942588 21.190924 23 21.2815924 22.6274002 21 22.3820084 21.3649562 22.3574309 21.5 22"></polyline>
                    <polyline id="Fill-10" fill="#FFFFFE" points="20.5000541 23 20.6349962 23.3573785 21 23.3819547 20.7184287 23.6273751 20.8091116 24 20.5000541 23.7942883 20.1909966 24 20.2815713 23.6273751 20 23.3819547 20.3650038 23.3573785 20.5000541 23"></polyline>
                    <polyline id="Fill-11" fill="#FFFFFE" points="22.5 23 22.6349275 23.3574516 23 23.382025 22.718351 23.6274175 22.809024 24 22.5 23.7943117 22.190976 24 22.2815408 23.6274175 22 23.382025 22.3649643 23.3574516 22.5 23"></polyline>
                    <polyline id="Fill-12" fill="#FFFFFE" points="22.5 24 22.6349327 24.3574479 23 24.381874 22.7183295 24.6273358 22.8089617 25 22.5 24.7941805 22.1909114 25 22.2815435 24.6273358 22 24.381874 22.3649403 24.3574479 22.5 24"></polyline>
                    <polyline id="Fill-13" fill="#FFFFFE" points="24.5 25 24.6350438 25.3574309 25 25.3820084 24.7184076 25.6274002 24.809076 26 24.5 25.7942588 24.1910153 26 24.2815924 25.6274002 24 25.3820084 24.3650475 25.3574309 24.5 25"></polyline>
                    <polyline id="Fill-14" fill="#FFFFFE" points="29.5 28 29.6350452 28.3575 30 28.382 29.7184974 28.6275 29.8090823 29 29.5 28.79425 29.1909177 29 29.2815026 28.6275 29 28.382 29.3649548 28.3575 29.5 28"></polyline>
                    <polyline id="Fill-15" fill="#FFFFFE" points="28.5 22 28.6350357 22.3573785 29 22.3819547 28.7184592 22.6273751 28.809024 23 28.5 22.7942883 28.190976 23 28.2815408 22.6273751 28 22.3819547 28.3649643 22.3573785 28.5 22"></polyline>
                    <polyline id="Fill-16" fill="#FFFFFE" points="29.5000541 22 29.6349962 22.3574923 30 22.3819547 29.7184287 22.6273751 29.8091116 23 29.5000541 22.7942883 29.1909966 23 29.2815713 22.6273751 29 22.3819547 29.3650038 22.3574923 29.5000541 22"></polyline>
                    <polyline id="Fill-17" fill="#FFFFFE" points="28.5 23 28.6350984 23.3574871 29 23.3819382 28.7184318 23.6273425 28.8090631 24 28.5 23.7943959 28.1911066 24 28.2815682 23.6273425 28 23.3819382 28.3650713 23.3574871 28.5 23"></polyline>
                    <polyline id="Fill-18" fill="#FFFFFE" points="27.4999365 22 27.6350133 22.3574479 28 22.3820075 27.7184207 22.6274693 27.8090644 23 27.4999365 22.7943139 27.1909356 23 27.2815793 22.6274693 27 22.3820075 27.3649867 22.3574479 27.4999365 22"></polyline>
                    <polyline id="Fill-19" fill="#FFFFFE" points="28.5 24 28.6349525 24.3574309 29 24.3820084 28.7184076 24.6274002 28.8089847 25 28.5 24.7942588 28.190924 25 28.2815924 24.6274002 28 24.3820084 28.3650475 24.3574309 28.5 24"></polyline>
                    <polyline id="Fill-20" fill="#FFFFFE" points="30.5 25 30.6349327 25.3574479 31 25.3820075 30.7184565 25.6273358 30.8089617 26 30.5 25.7941805 30.1910383 26 30.2816705 25.6273358 30 25.3820075 30.3650673 25.3574479 30.5 25"></polyline>
                    <polyline id="Fill-21" fill="#FFFFFE" points="31.5 26 31.6350357 26.3574923 32 26.3819547 31.7184592 26.6273751 31.809024 27 31.5 26.7942883 31.190976 27 31.281649 26.6273751 31 26.3819547 31.3650725 26.3574923 31.5 26"></polyline>
                    <polyline id="Fill-22" fill="#FFFFFE" points="32.5 25 32.6349327 25.3574479 33 25.3820075 32.7183295 25.6273358 32.8089617 26 32.5 25.7943139 32.1910383 26 32.2816705 25.6273358 32 25.3820075 32.3650673 25.3574479 32.5 25"></polyline>
                    <polyline id="Fill-23" fill="#FFFFFE" points="33.5 27 33.6349327 27.3574479 34 27.3820075 33.7184565 27.6273358 33.8089617 28 33.5 27.7943139 33.1910383 28 33.2815435 27.6273358 33 27.3820075 33.3650673 27.3574479 33.5 27"></polyline>
                    <polyline id="Fill-24" fill="#FFFFFE" points="33.5 26 33.6349275 26.3573785 34 26.3819547 33.718351 26.6273751 33.809024 27 33.5 26.7942883 33.190976 27 33.2815408 26.6273751 33 26.3819547 33.3649643 26.3573785 33.5 26"></polyline>
                    <polyline id="Fill-25" fill="#FFFFFE" points="33.5000635 25 33.6350133 25.3574479 34 25.3820075 33.7184207 25.6274693 33.8090644 26 33.5000635 25.7943139 33.1909356 26 33.2815793 25.6274693 33 25.3820075 33.3649867 25.3574479 33.5000635 25"></polyline>
                    <polyline id="Fill-26" fill="#FFFFFE" points="35.5000635 25 35.6350133 25.3574479 36 25.3820075 35.7184207 25.6273358 35.8090644 26 35.5000635 25.7941805 35.1909356 26 35.2815793 25.6273358 35 25.3820075 35.3649867 25.3574479 35.5000635 25"></polyline>
                    <polyline id="Fill-27" fill="#FFFFFE" points="35.5000541 25 35.6349962 25.3574516 36 25.382025 35.7184287 25.6274175 35.8090034 26 35.5000541 25.794198 35.1909966 26 35.2815713 25.6274175 35 25.382025 35.3650038 25.3574516 35.5000541 25"></polyline>
                    <polyline id="Fill-28" fill="#FFFFFE" points="35.5 24 35.6350357 24.3574516 36 24.382025 35.7184592 24.6274175 35.809024 25 35.5 24.794198 35.190976 25 35.281649 24.6274175 35 24.382025 35.3650725 24.3574516 35.5 24"></polyline>
                    <polyline id="Fill-29" fill="#FFFFFE" points="35.5 23 35.6349525 23.3574309 36 23.3820084 35.7184076 23.6274002 35.8089847 24 35.5 23.7942588 35.190924 24 35.2815924 23.6274002 35 23.3820084 35.3649562 23.3574309 35.5 23"></polyline>
                    <polyline id="Fill-30" fill="#FFFFFE" points="36.5 23 36.6349327 23.3574479 37 23.3820075 36.7183295 23.6274693 36.8089617 24 36.5 23.7943139 36.1910383 24 36.2815435 23.6274693 36 23.3820075 36.3650673 23.3574479 36.5 23"></polyline>
                    <path d="M22.7126944,17.321762 C28.8050945,17.321762 34.3906308,19.4638069 38.6878928,23 C38.8300849,22.5235045 38.9349156,22.0322848 39,21.5295706 C34.5443493,18.0747883 28.8741535,16 22.7126944,16 C21.644316,16 20.5911406,16.0637417 19.5560496,16.1848605 C19.3346632,16.6360873 19.1480547,17.1055531 19,17.5906932 C20.2111667,17.4136223 21.45105,17.321762 22.7126944,17.321762" id="Fill-31" fill="#FFFFFE"></path>
                    <path d="M20.1780028,16.4822604 C20.1858486,16.563961 20.2125791,16.6259659 20.2578294,16.668113 C20.3030797,16.7102602 20.3624706,16.7284158 20.4359111,16.7229043 C20.5101726,16.7172306 20.5657319,16.6902403 20.602589,16.6417711 C20.6395373,16.5933829 20.6538605,16.528217 20.6460147,16.4464353 C20.6380776,16.3648969 20.6114384,16.302892 20.5657319,16.2608259 C20.5200255,16.2185977 20.4601784,16.2005231 20.3859169,16.2061157 C20.3124764,16.2117893 20.2574645,16.2386986 20.2209723,16.2869247 C20.1844802,16.3351507 20.1700658,16.4002356 20.1780028,16.4822604 Z M20.0025668,16.495634 C19.9909805,16.3755957 20.0186233,16.2776037 20.085404,16.2015767 C20.1521846,16.1254688 20.2480677,16.0825922 20.3730534,16.0731091 C20.4978565,16.0635449 20.6006732,16.0912647 20.6815945,16.1561875 C20.7624246,16.2211103 20.8085872,16.3135098 20.8201735,16.4331428 C20.8317597,16.5529379 20.8040257,16.651011 20.7367889,16.7272811 C20.6696433,16.8035512 20.5735778,16.8464278 20.4487746,16.8559919 C20.323789,16.8654751 20.2211548,16.8377552 20.1406896,16.7728324 C20.0602244,16.7078286 20.014153,16.6154291 20.0025668,16.495634 Z M21.3683769,16.3567916 L21.5713645,16.3507938 C21.6152463,16.3494159 21.6473594,16.3405002 21.6675213,16.3240466 C21.6875007,16.3075119 21.6968062,16.2823047 21.695529,16.2481817 C21.694343,16.2158419 21.6833041,16.1916073 21.6626861,16.1753969 C21.6419768,16.1592675 21.6115971,16.1518918 21.5719118,16.1531075 L21.3609872,16.1593486 L21.3683769,16.3567916 Z M21.2115518,16.7812618 L21.1835441,16.0359872 L21.5904316,16.0239104 C21.6817532,16.0211546 21.7502672,16.0365545 21.7955175,16.0700291 C21.8409502,16.1034226 21.8649438,16.1560254 21.8675895,16.2275134 C21.8693229,16.2729027 21.8600174,16.3112403 21.839673,16.3422833 C21.8193286,16.3733263 21.7892226,16.3949672 21.7494462,16.4072061 C21.7863945,16.4176618 21.8129425,16.4343586 21.829364,16.4575395 C21.845603,16.4808015 21.8557296,16.5172749 21.8599262,16.567122 L21.8667684,16.6549015 C21.8667684,16.655631 21.8668597,16.6566847 21.8668597,16.6580626 C21.8695053,16.7023981 21.8814565,16.7291453 21.9024395,16.7378989 L21.9031694,16.7606746 L21.7138663,16.7663483 C21.7074802,16.7559736 21.7025537,16.7433294 21.6986308,16.7280916 C21.6949816,16.7127728 21.6920623,16.694536 21.690785,16.6733004 L21.6854024,16.5949229 C21.6817532,16.5488853 21.6708968,16.5179234 21.6526507,16.5023613 C21.6343134,16.4866372 21.6021091,16.4795046 21.5562202,16.4808825 L21.3733033,16.486313 L21.3841597,16.7761556 L21.2115518,16.7812618 Z M22.4501867,16.6138081 L22.5885832,16.6161586 C22.6687747,16.6174554 22.7273446,16.5998671 22.7638368,16.5631505 C22.8006939,16.5265959 22.8198522,16.4662121 22.8215856,16.3825662 C22.8234102,16.2993257 22.8079923,16.237726 22.7753318,16.1980915 C22.7427626,16.1582949 22.6910349,16.1378697 22.6198752,16.136735 L22.4604045,16.1339792 L22.4501867,16.6138081 Z M22.278035,16.7455989 L22.2940003,16 L22.6227034,16.0055926 C22.7514295,16.0077 22.8468564,16.0402829 22.9087106,16.1030173 C22.9705648,16.1657517 23.0003059,16.2599343 22.9976603,16.3855652 C22.9961094,16.453649 22.9831546,16.5135465 22.9587961,16.5651768 C22.9343464,16.616807 22.8994051,16.6580626 22.8544286,16.6889434 C22.8203996,16.7119622 22.7821741,16.7283348 22.7392958,16.73798 C22.6965088,16.747382 22.6368441,16.7515968 22.5600281,16.7502999 L22.278035,16.7455989 Z M23.3430585,16.7621335 L23.3882175,16.0175883 L23.9969979,16.0467671 L23.9891521,16.1762074 L23.5505164,16.1551339 L23.5409372,16.313915 L23.941986,16.3331244 L23.9342314,16.4604574 L23.5331826,16.441248 L23.5215051,16.6327743 L23.9806676,16.6547394 L23.9723657,16.7922849 L23.3430585,16.7621335 Z M24.3309011,16.8143311 L24.4198507,16.0728659 L24.6738361,16.0968573 L24.7720912,16.6769477 L25.0036339,16.1281435 L25.2585316,16.152297 L25.169582,16.8937623 L25.0086516,16.8785245 L25.0803587,16.2805216 L24.8391456,16.8624761 L24.6635271,16.8458604 L24.5635386,16.231566 L24.4917403,16.8295689 L24.3309011,16.8143311 Z M26.5549154,17.0687539 L26.7307163,16.3396086 L27.3268156,16.4530006 L27.2962535,16.5797662 L26.8667408,16.4980656 L26.8293364,16.6535236 L27.2220832,16.7281727 L27.1920684,16.852912 L26.7992303,16.7781819 L26.7540713,16.9657366 L27.2036546,17.0513277 L27.1711766,17.1860364 L26.5549154,17.0687539 Z M28.7766489,17.1147915 L28.9377618,17.1533724 C28.9813699,17.1638281 29.0155813,17.1631797 29.0404872,17.1515082 C29.0653018,17.1396745 29.083183,17.1156831 29.0942219,17.0791286 C29.1047134,17.0449246 29.1027063,17.0167995 29.088748,16.9944291 C29.0745161,16.9722208 29.048333,16.9564966 29.0097425,16.9472567 L28.8397803,16.9065685 L28.7766489,17.1147915 Z M28.7358689,17.2449613 L28.6582319,17.5010862 L28.4914627,17.4611274 L28.7098683,16.741141 L29.0703195,16.8274616 C29.1553462,16.8478867 29.2138249,16.8829823 29.245938,16.9327484 C29.2776862,16.9824333 29.2822477,17.0452488 29.2591664,17.1213567 C29.2366325,17.1956005 29.1978596,17.2477171 29.1426652,17.2776253 C29.0876533,17.3075336 29.0200516,17.3130451 28.9406811,17.2939979 L28.7358689,17.2449613 Z M29.7450594,17.3621627 L29.9391977,17.4151709 C29.9811636,17.4265992 30.0147364,17.4274908 30.039916,17.4176835 C30.0648219,17.4078762 30.0828855,17.3867215 30.0941981,17.3540575 C30.1049633,17.3231766 30.1034124,17.2970778 30.0897278,17.2758422 C30.0761345,17.2546065 30.0501338,17.2388013 30.012182,17.2284267 L29.8103804,17.1733112 L29.7450594,17.3621627 Z M29.441171,17.7181439 L29.6877667,17.0053711 L30.0769555,17.1116305 C30.1643543,17.1354598 30.2234715,17.169907 30.2539425,17.2145667 C30.2846871,17.2593075 30.2881539,17.315882 30.2645252,17.38429 C30.2494722,17.4277339 30.2266646,17.4612895 30.1960112,17.4847136 C30.165449,17.5082187 30.1290481,17.5199713 30.0868997,17.5199713 C30.1180092,17.5406396 30.1368939,17.5640637 30.1440099,17.5907299 C30.1508522,17.617396 30.1470205,17.6549232 30.1327885,17.7032303 L30.1069703,17.788254 C30.1067879,17.7889024 30.106423,17.789875 30.1059668,17.7911719 C30.0922822,17.8338864 30.0937419,17.8626599 30.1103459,17.8769251 L30.1027737,17.8988091 L29.9216814,17.8493673 C29.9194007,17.8376958 29.9193094,17.8242412 29.9212253,17.8086791 C29.9234148,17.7931982 29.9273377,17.7751235 29.9339063,17.7546984 L29.957535,17.6790767 C29.9709458,17.634498 29.9720406,17.6020772 29.9604543,17.5819762 C29.9488681,17.5618753 29.9210428,17.5457459 29.877161,17.5338312 L29.7021811,17.4860105 L29.606298,17.7632089 L29.441171,17.7181439 Z M30.7194911,17.7155502 C30.687743,17.7926308 30.6824516,17.8587694 30.7034346,17.914047 C30.7244176,17.9691624 30.7695766,18.0079864 30.8388205,18.0305189 C30.9087029,18.0532135 30.9719256,18.0496472 31.0284884,18.0195769 C31.0848688,17.9895876 31.1289331,17.935931 31.1606813,17.8588504 C31.1923382,17.7819319 31.1976296,17.7157933 31.1762817,17.6604347 C31.1549338,17.6050761 31.1092273,17.566171 31.0392536,17.5434764 C30.9700098,17.5209439 30.9073345,17.5246723 30.851319,17.5546616 C30.7953036,17.584732 30.7512393,17.6383075 30.7194911,17.7155502 Z M30.5541817,17.6618126 C30.6007092,17.5486638 30.6724163,17.4702053 30.7691205,17.4264371 C30.8658247,17.3825068 30.9730204,17.37967 31.0909813,17.4179266 C31.2085772,17.4561833 31.2885863,17.5198903 31.3309172,17.6091287 C31.3733393,17.6983671 31.371241,17.7993581 31.324896,17.9121828 C31.2783685,18.0251695 31.2065702,18.1035469 31.1094098,18.1473961 C31.0122494,18.1913264 30.90478,18.1941632 30.7871841,18.1559066 C30.6693144,18.11765 30.5894878,18.053943 30.5474306,17.9648667 C30.5054647,17.8757903 30.5076542,17.7747183 30.5541817,17.6618126 Z M32.1068316,18.5375002 C32.0615813,18.5611675 32.0168784,18.5740548 31.9726317,18.5764863 C31.9283849,18.5786747 31.8815838,18.5705695 31.8323193,18.5519275 C31.724485,18.5110772 31.6529604,18.4446955 31.6179279,18.3527823 C31.5829867,18.2607881 31.5915624,18.1605266 31.6434725,18.0522409 C31.6959299,17.9429015 31.7713775,17.8680904 31.8695413,17.8278885 C31.9677052,17.7876866 32.0723465,17.7886592 32.1834651,17.8307253 C32.2802605,17.8673609 32.3494132,17.9176943 32.3908318,17.9821308 C32.4320679,18.0464051 32.4413734,18.1168395 32.4182921,18.1931096 L32.2563582,18.1318341 C32.2635654,18.0924428 32.2568143,18.0577524 32.2354664,18.0277631 C32.2141185,17.9976928 32.1791773,17.9732961 32.1306427,17.9549783 C32.0660516,17.9305005 32.0052009,17.9322837 31.9480907,17.9604088 C31.8909805,17.9885339 31.8447267,18.0395968 31.8091468,18.1138405 C31.7733845,18.1884085 31.7645352,18.2539797 31.78269,18.3108784 C31.8009361,18.3675338 31.8435407,18.4087083 31.9106862,18.4340777 C31.9609542,18.4531249 32.0093063,18.4558807 32.0560162,18.442345 C32.1024525,18.4287282 32.1407693,18.400441 32.1708753,18.3575644 L31.9958954,18.2913448 L32.0521846,18.1739813 L32.3719471,18.2950732 L32.1938654,18.6662111 L32.0873995,18.6260092 L32.1068316,18.5375002 Z M32.904915,18.5178856 L33.0872845,18.5972357 C33.1267873,18.6144187 33.1597214,18.6198492 33.1862695,18.6137703 C33.2127263,18.6075293 33.2342566,18.5891305 33.2511343,18.5584117 C33.2671908,18.529395 33.2702927,18.5034583 33.260531,18.4805206 C33.2508606,18.4576638 33.2278705,18.4384545 33.1921994,18.4228925 L33.0027139,18.3404624 L32.904915,18.5178856 Z M32.5420917,18.8272617 L32.9111186,18.1575277 L33.2768612,18.316552 C33.3589686,18.352296 33.4112436,18.3945242 33.4335038,18.4429124 C33.4560377,18.4913005 33.4493779,18.5477128 33.4140717,18.6119872 C33.3915378,18.6527564 33.3630739,18.6827457 33.3286801,18.7016309 C33.2943775,18.7205971 33.2563344,18.7271623 33.2147333,18.7213265 C33.2418288,18.7460475 33.2564256,18.771822 33.2587064,18.7991366 C33.2607135,18.8263702 33.2504044,18.8628436 33.2277793,18.9086381 L33.1873642,18.9890419 C33.1869993,18.9896092 33.1865432,18.9905819 33.1858133,18.9917976 C33.1647391,19.0320806 33.1610899,19.060692 33.1749569,19.0771456 L33.1637356,19.0975707 L32.9935909,19.0235701 C32.9933172,19.0118175 32.995598,18.998525 33.0002507,18.9834493 C33.0050859,18.9683736 33.0122019,18.9511094 33.0222372,18.931819 L33.0590031,18.8604121 C33.0800773,18.8182649 33.0868283,18.7863304 33.0788913,18.7650137 C33.0710455,18.7434538 33.0464133,18.7237581 33.0051772,18.7057645 L32.84078,18.6342765 L32.6972746,18.8946971 L32.5420917,18.8272617 Z M33.4801225,19.2551361 L33.888196,18.6034767 L34.4209815,18.8668152 L34.3500042,18.9801261 L33.966198,18.790383 L33.8791642,18.9293064 L34.2302187,19.1027581 L34.1604275,19.2142048 L33.809373,19.0407531 L33.704458,19.208288 L34.1062367,19.4069468 L34.0308804,19.5273093 L33.4801225,19.2551361 Z M34.4271851,19.4862969 L34.5731538,19.5645123 C34.5549077,19.6023636 34.5535392,19.6369729 34.5685922,19.668178 C34.5838277,19.6993831 34.6165794,19.7283997 34.6670298,19.7554712 C34.7100906,19.7784089 34.7469476,19.7889457 34.777966,19.7870005 C34.8089843,19.7852173 34.833434,19.7709521 34.8515889,19.744286 C34.8778632,19.705462 34.8369008,19.6399718 34.728884,19.5474102 C34.7275156,19.5462755 34.7261471,19.5451408 34.7251436,19.5442492 C34.7223154,19.5418987 34.7180276,19.5381703 34.7120976,19.532983 C34.6538014,19.4840275 34.6158496,19.4439066 34.5984246,19.4123773 C34.5827329,19.3843333 34.5766205,19.354425 34.5799048,19.3228957 C34.5830979,19.2913664 34.5959613,19.2590266 34.6185865,19.2257142 C34.6607349,19.1636282 34.7168416,19.1287758 34.7869065,19.1209948 C34.8566978,19.1134569 34.9366156,19.1336389 35.0263863,19.1817839 C35.1103182,19.2266868 35.1640529,19.2794518 35.1874992,19.3399977 C35.2107629,19.4007869 35.202096,19.4636834 35.1611336,19.5294167 L35.0190879,19.4532276 C35.0374252,19.4208878 35.0400709,19.390169 35.0270249,19.3612334 C35.0137965,19.3321357 34.9849677,19.3056316 34.9405385,19.2818023 C34.9017656,19.2610529 34.8673717,19.2517319 34.8372657,19.2539203 C34.8070685,19.2561898 34.7837135,19.2696445 34.7668359,19.2945275 C34.7437546,19.3284073 34.7675657,19.3754175 34.8377219,19.4360446 C34.856789,19.4524982 34.8716596,19.4653044 34.8821511,19.4745443 C34.926489,19.514422 34.9574161,19.5436818 34.9748411,19.5619186 C34.9923574,19.5803985 35.0064068,19.5980679 35.0172633,19.6149267 C35.0366041,19.6450781 35.0455447,19.6758779 35.044085,19.7075693 C35.0425341,19.7392607 35.0304917,19.7717626 35.0079578,19.8050751 C34.9627987,19.8714568 34.9027691,19.9094703 34.8274128,19.9190344 C34.7521478,19.9285175 34.6687632,19.9089029 34.5769854,19.8597043 C34.4864849,19.8112351 34.4281887,19.7546606 34.402188,19.6899 C34.3760961,19.6249772 34.3843981,19.5572176 34.4271851,19.4862969 Z M35.3118462,19.9777973 L35.4528883,20.0625778 C35.432544,20.0996187 35.4290772,20.1340658 35.4423056,20.1660004 C35.4556253,20.1977728 35.4866436,20.2283295 35.5354518,20.2576704 C35.5770529,20.2826345 35.6132714,20.2948733 35.6443809,20.294387 C35.6753992,20.2940628 35.7007613,20.2808513 35.7203758,20.2550767 C35.7489309,20.2176306 35.7118914,20.1502763 35.6095309,20.0528516 C35.6081625,20.0515547 35.6068852,20.05042 35.6059729,20.0494474 C35.603236,20.0469348 35.5991306,20.0430443 35.5935656,20.0376138 C35.53828,19.9859835 35.5027001,19.9441606 35.487191,19.9119018 C35.4730503,19.8832094 35.4687624,19.853058 35.4738713,19.8216908 C35.4789802,19.7903236 35.4936683,19.7586322 35.5182093,19.7264545 C35.5640069,19.6663948 35.6222119,19.6342171 35.6925506,19.6296782 C35.7627067,19.6253824 35.8413473,19.6492928 35.9281074,19.7014904 C36.0093024,19.7502838 36.0598441,19.8054804 36.0796411,19.8669989 C36.0993468,19.9287607 36.0869395,19.9912519 36.0422366,20.0548779 L35.9048437,19.9722857 C35.9250056,19.9407564 35.9294759,19.9102808 35.9181633,19.8806968 C35.9066683,19.8511127 35.8794816,19.8233118 35.8365121,19.7974562 C35.7989252,19.7748426 35.7651699,19.7639816 35.7349727,19.7647922 C35.7047754,19.7656027 35.6805081,19.7779226 35.6622621,19.8019951 C35.6372649,19.8347402 35.6582479,19.8828852 35.7247549,19.9466732 C35.7427273,19.9639373 35.7569592,19.9774731 35.7668121,19.9871993 C35.8086868,20.0290222 35.8379718,20.059741 35.854302,20.0787072 C35.8706323,20.0979976 35.8836782,20.1162344 35.8934399,20.1335795 C35.9109561,20.1646225 35.9181633,20.1958276 35.9147878,20.2274379 C35.9114122,20.2589672 35.897454,20.2908207 35.872913,20.3230795 C35.8240135,20.3872728 35.7617032,20.4224495 35.685982,20.4285284 C35.6102607,20.4344452 35.5281534,20.4110211 35.439295,20.3576077 C35.3518963,20.3050859 35.2969756,20.2457557 35.2748066,20.1798603 C35.2525464,20.1138839 35.2648625,20.0465295 35.3118462,19.9777973 Z M36.3782381,20.480726 C36.3224964,20.5462161 36.2956746,20.60814 36.2975905,20.6663354 C36.2994151,20.7246119 36.329886,20.7733243 36.3886384,20.8128777 C36.4481206,20.8527554 36.5097011,20.8658048 36.5736536,20.8517017 C36.6375149,20.8376797 36.6972708,20.797802 36.7529213,20.7323929 C36.8085718,20.6670649 36.8353936,20.60506 36.833204,20.5467024 C36.8310145,20.4881828 36.8000874,20.4390652 36.7406964,20.3991875 C36.6818528,20.359634 36.6207285,20.3469899 36.5573234,20.361174 C36.4937358,20.3752771 36.4340711,20.4150737 36.3782381,20.480726 Z M36.2378346,20.3863812 C36.319577,20.2903344 36.4139092,20.2339221 36.5208312,20.2170633 C36.6277532,20.2002855 36.7312997,20.2254116 36.8313794,20.2926039 C36.9312767,20.3597151 36.986836,20.4414157 36.9979661,20.5377867 C37.0091874,20.6341577 36.9739725,20.7302045 36.8924126,20.8260082 C36.8108526,20.921974 36.7163379,20.9783052 36.6089598,20.995002 C36.5015816,21.0116987 36.3979439,20.9865725 36.2980466,20.9194614 C36.1978756,20.8521881 36.1424988,20.7705685 36.1316424,20.6744406 C36.120786,20.5783938 36.1561834,20.482347 36.2378346,20.3863812 L36.2378346,20.3863812 Z" id="Fill-32" fill="#009949"></path>
                </g>
            </g>
        </g>
    </g>
</svg>