<?xml version="1.0" encoding="UTF-8" standalone="no"?>
<svg width="51px" height="9px" viewBox="0 0 51 9" version="1.1" xmlns="http://www.w3.org/2000/svg" xmlns:xlink="http://www.w3.org/1999/xlink">
    <!-- Generator: Sketch 47.1 (45422) - http://www.bohemiancoding.com/sketch -->
    <title>BRBAUEN</title>
    <desc>Created with Sketch.</desc>
    <defs></defs>
    <g id="Symbols" stroke="none" stroke-width="1" fill="none" fill-rule="evenodd">
        <g id="GEC_Foot" transform="translate(-1838.000000, -481.000000)" fill="#AEAEAE">
            <g id="BRBAUEN" transform="translate(1838.000000, 481.000000)">
                <path d="M3.21651724,4.59049091 L1.41493596,4.59049091 L1.41493596,6.71710909 L3.17204926,6.71710909 C3.8345468,6.71710909 4.55382266,6.48024545 4.55382266,5.7024 C4.55382266,4.88209091 3.96769951,4.59049091 3.21651724,4.59049091 Z M3.17204926,1.50267273 L1.41493596,1.50267273 L1.41493596,3.42433636 L3.20521182,3.42433636 C3.84635468,3.42433636 4.38851232,3.19778182 4.38851232,2.47442727 C4.38851232,1.74051818 3.81319212,1.50267273 3.17204926,1.50267273 Z M5.20576847,7.452 C4.59778818,7.90510909 3.86821182,7.96990909 3.11677833,7.96990909 L0,7.96990909 L0,0.304363636 L3.11677833,0.304363636 C3.746867,0.304363636 4.39856158,0.390518182 4.92966502,0.725563636 C5.50372906,1.09251818 5.83560591,1.72922727 5.83560591,2.38778182 C5.83560591,3.01442727 5.53739409,3.71593636 4.87439409,4.00729091 C5.61452217,4.34233636 6.00091626,5.02273636 6.00091626,5.73529091 C6.00091626,6.41569091 5.76928079,7.03055455 5.20576847,7.452 L5.20576847,7.452 Z" id="Fill-1"></path>
                <path d="M10.0831773,1.52427273 L8.20522167,1.52427273 L8.20522167,3.81289091 L10.1055369,3.81289091 C10.9122414,3.81289091 11.3760148,3.40322727 11.3760148,2.67987273 C11.3760148,2.06402727 10.890133,1.52427273 10.0831773,1.52427273 Z M11.25467,7.95910909 L9.9497734,5.06569091 L8.21527094,5.06569091 L8.21527094,7.95910909 L6.7789803,7.95910909 L6.7789803,0.304363636 L10.0831773,0.304363636 C11.9508325,0.304363636 12.8017537,1.44891818 12.8017537,2.67987273 C12.8017537,3.70513636 12.226936,4.51513636 11.3649606,4.82809091 L12.8017537,7.95910909 L11.25467,7.95910909 L11.25467,7.95910909 Z" id="Fill-3"></path>
                <polyline id="Fill-4" points="14.5802217 8.1 13.2627635 8.1 16.6551429 0.163963636 17.9728522 0.163963636 14.5802217 8.1"></polyline>
                <path d="M21.5516453,4.59049091 L19.7508177,4.59049091 L19.7508177,6.71710909 L21.5076798,6.71710909 C22.1706798,6.71710909 22.8889507,6.48024545 22.8889507,5.7024 C22.8889507,4.88209091 22.3030788,4.59049091 21.5516453,4.59049091 Z M21.5076798,1.50267273 L19.7508177,1.50267273 L19.7508177,3.42433636 L21.5408424,3.42433636 C22.1819852,3.42433636 22.7226355,3.19778182 22.7226355,2.47442727 C22.7226355,1.74051818 22.1488227,1.50267273 21.5076798,1.50267273 Z M23.5403941,7.452 C22.9334187,7.90510909 22.2045961,7.96990909 21.4526601,7.96990909 L18.336133,7.96990909 L18.336133,0.304363636 L21.4526601,0.304363636 C22.0824975,0.304363636 22.7344433,0.390518182 23.2645419,0.725563636 C23.8396108,1.09251818 24.170734,1.72922727 24.170734,2.38778182 C24.170734,3.01442727 23.8727734,3.71593636 23.2095222,4.00729091 C23.9496502,4.34233636 24.3370493,5.02273636 24.3370493,5.73529091 C24.3370493,6.41569091 24.1049113,7.03055455 23.5403941,7.452 L23.5403941,7.452 Z" id="Fill-6"></path>
                <path d="M27.8844384,2.00978182 L26.768468,5.23824545 L29.0006601,5.23824545 L27.8844384,2.00978182 Z M29.9508177,7.95910909 L29.4420739,6.49104545 L26.325798,6.49104545 L25.8180591,7.95910909 L24.3815172,7.95910909 L27.1330049,0.304363636 L28.6908916,0.304363636 L31.4426305,7.95910909 L29.9508177,7.95910909 L29.9508177,7.95910909 Z" id="Fill-7"></path>
                <path d="M34.5651872,8.1 C32.5432759,8.1 31.4931281,6.8472 31.4931281,5.02273636 L31.4931281,0.304363636 L32.918867,0.304363636 L32.918867,5.0004 C32.918867,6.09169091 33.4271084,6.83664545 34.5651872,6.83664545 C35.7030148,6.83664545 36.2120099,6.09169091 36.2120099,5.0004 L36.2120099,0.304363636 L37.6369951,0.304363636 L37.6369951,5.02273636 C37.6369951,6.8472 36.5878522,8.1 34.5651872,8.1" id="Fill-9"></path>
                <polyline id="Fill-11" points="38.3610443 7.95910909 38.3610443 0.304363636 43.9419015 0.304363636 43.9419015 1.56771818 39.7867833 1.56771818 39.7867833 3.34898182 43.4442118 3.34898182 43.4442118 4.60129091 39.7867833 4.60129091 39.7867833 6.69649091 43.9419015 6.69649091 43.9419015 7.95910909 38.3610443 7.95910909"></polyline>
                <polyline id="Fill-12" points="49.446133 7.95910909 46.0535025 2.70098182 46.0535025 7.95910909 44.6501232 7.95910909 44.6501232 0.304363636 46.1640443 0.304363636 49.5114532 5.48664545 49.5114532 0.304363636 50.9158374 0.304363636 50.9158374 7.95910909 49.446133 7.95910909"></polyline>
            </g>
        </g>
    </g>
</svg>